<svg width="20" height="22" viewBox="0 0 20 22" fill="none" xmlns="http://www.w3.org/2000/svg">
<path fill-rule="evenodd" clip-rule="evenodd" d="M5.05027 2.05025C6.36302 0.737498 8.1435 0 10 0C11.8565 0 13.637 0.737498 14.9498 2.05025C16.2625 3.36301 17 5.14349 17 7C17 10.3527 17.7171 12.4346 18.3779 13.6461C18.7097 14.2544 19.0328 14.6535 19.2572 14.8904C19.3697 15.0091 19.4581 15.0878 19.5113 15.1322C19.5379 15.1544 19.5558 15.168 19.5635 15.1737C19.5647 15.1746 19.5656 15.1753 19.5663 15.1758C19.9248 15.4221 20.0835 15.8725 19.9571 16.2898C19.8294 16.7115 19.4407 17 19 17H1.00002C0.55935 17 0.170623 16.7115 0.0429247 16.2898C-0.0834178 15.8725 0.0752214 15.4221 0.433706 15.1758C0.434408 15.1753 0.435362 15.1746 0.436564 15.1737C0.444263 15.168 0.462117 15.1544 0.488739 15.1322C0.541955 15.0878 0.630339 15.0091 0.742814 14.8904C0.967243 14.6535 1.29033 14.2544 1.62212 13.6461C2.28295 12.4346 3.00002 10.3527 3.00002 7C3.00002 5.14348 3.73751 3.36301 5.05027 2.05025ZM0.443814 15.169C0.443893 15.1689 0.443972 15.1688 0.444051 15.1688C0.444046 15.1688 0.444042 15.1688 0.444038 15.1688L0.443814 15.169ZM3.14934 15H16.8507C16.7746 14.8753 16.6982 14.7434 16.6221 14.6039C15.7829 13.0654 15 10.6473 15 7C15 5.67392 14.4732 4.40215 13.5356 3.46447C12.5979 2.52678 11.3261 2 10 2C8.67393 2 7.40216 2.52678 6.46448 3.46447C5.5268 4.40215 5.00002 5.67392 5.00002 7C5.00002 10.6473 4.21708 13.0654 3.37791 14.6039C3.30181 14.7434 3.22543 14.8753 3.14934 15ZM7.76899 19.1346C8.24696 18.8579 8.85874 19.021 9.13545 19.499C9.22321 19.6506 9.34928 19.7764 9.50103 19.8639C9.65277 19.9514 9.82486 19.9974 10 19.9974C10.1752 19.9974 10.3473 19.9514 10.499 19.8639C10.6508 19.7764 10.7768 19.6506 10.8646 19.499C11.1413 19.021 11.7531 18.8579 12.231 19.1346C12.709 19.4113 12.8722 20.0231 12.5954 20.501C12.332 20.9561 11.9535 21.3339 11.498 21.5965C11.0424 21.8592 10.5258 21.9974 10 21.9974C9.47419 21.9974 8.9576 21.8592 8.50206 21.5965C8.04651 21.3339 7.66804 20.9561 7.40458 20.501C7.12788 20.0231 7.29103 19.4113 7.76899 19.1346Z" fill="black"/>
</svg>
