<svg width="18" height="18" viewBox="0 0 18 18" fill="none" xmlns="http://www.w3.org/2000/svg">
<g id="icon">
<path id="Union" fill-rule="evenodd" clip-rule="evenodd" d="M13.5 2.91016C13.277 2.91016 13.0631 2.99876 12.9053 3.15648L3.67724 12.3846L3.28079 13.9704L4.86658 13.5739L14.0947 4.34582C14.1728 4.26772 14.2347 4.17501 14.277 4.07298C14.3193 3.97095 14.341 3.86159 14.341 3.75115C14.341 3.64071 14.3193 3.53135 14.277 3.42931C14.2347 3.32728 14.1728 3.23457 14.0947 3.15648C14.0166 3.07838 13.9239 3.01644 13.8218 2.97417C13.7198 2.93191 13.6105 2.91016 13.5 2.91016ZM11.8447 2.09582C12.2837 1.6568 12.8791 1.41016 13.5 1.41016C13.8074 1.41016 14.1119 1.47071 14.3959 1.58835C14.6799 1.706 14.938 1.87844 15.1553 2.09582C15.3727 2.3132 15.5452 2.57127 15.6628 2.85529C15.7805 3.13931 15.841 3.44372 15.841 3.75115C15.841 4.05857 15.7805 4.36298 15.6628 4.647C15.5452 4.93103 15.3727 5.1891 15.1553 5.40648L5.78035 14.7815C5.68423 14.8776 5.56379 14.9458 5.43192 14.9788L2.43192 15.7288C2.17634 15.7926 1.90597 15.7178 1.71969 15.5315C1.5334 15.3452 1.45851 15.0748 1.52241 14.8192L2.27241 11.8192C2.30538 11.6874 2.37357 11.5669 2.46969 11.4708L11.8447 2.09582ZM8.25002 15.0011C8.25002 14.5869 8.5858 14.2511 9.00002 14.2511H15.75C16.1642 14.2511 16.5 14.5869 16.5 15.0011C16.5 15.4154 16.1642 15.7511 15.75 15.7511H9.00002C8.5858 15.7511 8.25002 15.4154 8.25002 15.0011Z" fill="#6750A4"/>
</g>
</svg>
