<svg width="163" height="38" viewBox="0 0 163 38" fill="none" xmlns="http://www.w3.org/2000/svg">
<circle cx="19" cy="19" r="19" fill="#1A1A1A"/>
<path d="M67.2969 26.3438V30H55.1875V26.3438H67.2969ZM56.7188 7.25V30H52.0312V7.25H56.7188ZM65.7188 16.5156V20.0781H55.1875V16.5156H65.7188ZM67.2812 7.25V10.9219H55.1875V7.25H67.2812ZM77.915 26.1875V18.6562C77.915 18.1146 77.8265 17.651 77.6494 17.2656C77.4723 16.8698 77.1963 16.5625 76.8213 16.3438C76.4567 16.125 75.9827 16.0156 75.3994 16.0156C74.8994 16.0156 74.4671 16.1042 74.1025 16.2812C73.7379 16.4479 73.4567 16.6927 73.2588 17.0156C73.0608 17.3281 72.9619 17.6979 72.9619 18.125H68.4619C68.4619 17.4062 68.6285 16.724 68.9619 16.0781C69.2952 15.4323 69.7796 14.8646 70.415 14.375C71.0504 13.875 71.8056 13.4844 72.6806 13.2031C73.566 12.9219 74.5556 12.7812 75.6494 12.7812C76.9619 12.7812 78.1285 13 79.1494 13.4375C80.1702 13.875 80.9723 14.5312 81.5556 15.4062C82.1494 16.2812 82.4463 17.375 82.4463 18.6875V25.9219C82.4463 26.849 82.5035 27.6094 82.6181 28.2031C82.7327 28.7865 82.8994 29.2969 83.1181 29.7344V30H78.5713C78.3525 29.5417 78.1858 28.9688 78.0713 28.2812C77.9671 27.5833 77.915 26.8854 77.915 26.1875ZM78.5088 19.7031L78.54 22.25H76.0244C75.4306 22.25 74.915 22.3177 74.4775 22.4531C74.04 22.5885 73.6806 22.7812 73.3994 23.0312C73.1181 23.2708 72.9098 23.5521 72.7744 23.875C72.6494 24.1979 72.5869 24.5521 72.5869 24.9375C72.5869 25.3229 72.6754 25.6719 72.8525 25.9844C73.0296 26.2865 73.2848 26.526 73.6181 26.7031C73.9515 26.8698 74.3421 26.9531 74.79 26.9531C75.4671 26.9531 76.0556 26.8177 76.5556 26.5469C77.0556 26.276 77.441 25.9427 77.7119 25.5469C77.9931 25.151 78.139 24.776 78.1494 24.4219L79.3369 26.3281C79.1702 26.7552 78.941 27.1979 78.6494 27.6562C78.3681 28.1146 78.0088 28.5469 77.5713 28.9531C77.1338 29.349 76.6077 29.6771 75.9931 29.9375C75.3785 30.1875 74.6494 30.3125 73.8056 30.3125C72.7327 30.3125 71.7588 30.099 70.8838 29.6719C70.0192 29.2344 69.3317 28.6354 68.8213 27.875C68.3213 27.1042 68.0713 26.2292 68.0713 25.25C68.0713 24.3646 68.2379 23.5781 68.5713 22.8906C68.9046 22.2031 69.3942 21.625 70.04 21.1562C70.6963 20.6771 71.514 20.3177 72.4931 20.0781C73.4723 19.8281 74.6077 19.7031 75.8994 19.7031H78.5088ZM94.0956 25.3281C94.0956 25.0052 94.0019 24.7135 93.8144 24.4531C93.6269 24.1927 93.2779 23.9531 92.7675 23.7344C92.2675 23.5052 91.5435 23.2969 90.5956 23.1094C89.7415 22.9219 88.9446 22.6875 88.205 22.4062C87.4758 22.1146 86.8404 21.7656 86.2988 21.3594C85.7675 20.9531 85.3508 20.474 85.0488 19.9219C84.7467 19.3594 84.5956 18.7188 84.5956 18C84.5956 17.2917 84.7467 16.625 85.0488 16C85.3613 15.375 85.804 14.8229 86.3769 14.3438C86.9602 13.8542 87.6685 13.474 88.5019 13.2031C89.3456 12.9219 90.2935 12.7812 91.3456 12.7812C92.8144 12.7812 94.0748 13.0156 95.1269 13.4844C96.1894 13.9531 97.0019 14.599 97.5644 15.4219C98.1373 16.2344 98.4238 17.1615 98.4238 18.2031H93.9238C93.9238 17.7656 93.83 17.375 93.6425 17.0312C93.4654 16.6771 93.1842 16.401 92.7988 16.2031C92.4238 15.9948 91.9342 15.8906 91.33 15.8906C90.83 15.8906 90.3977 15.9792 90.0331 16.1562C89.6685 16.3229 89.3873 16.5521 89.1894 16.8438C89.0019 17.125 88.9081 17.4375 88.9081 17.7812C88.9081 18.0417 88.9602 18.276 89.0644 18.4844C89.179 18.6823 89.3613 18.8646 89.6113 19.0312C89.8613 19.1979 90.1842 19.3542 90.58 19.5C90.9863 19.6354 91.4863 19.7604 92.08 19.875C93.2988 20.125 94.3873 20.4531 95.3456 20.8594C96.304 21.2552 97.0644 21.7969 97.6269 22.4844C98.1894 23.1615 98.4706 24.0521 98.4706 25.1562C98.4706 25.9062 98.304 26.5938 97.9706 27.2188C97.6373 27.8438 97.1581 28.3906 96.5331 28.8594C95.9081 29.3177 95.1581 29.6771 94.2831 29.9375C93.4185 30.1875 92.4446 30.3125 91.3613 30.3125C89.7883 30.3125 88.455 30.0312 87.3613 29.4688C86.2779 28.9062 85.455 28.1927 84.8925 27.3281C84.3404 26.4531 84.0644 25.5573 84.0644 24.6406H88.33C88.3508 25.2552 88.5071 25.75 88.7988 26.125C89.1008 26.5 89.481 26.7708 89.9394 26.9375C90.4081 27.1042 90.9133 27.1875 91.455 27.1875C92.0383 27.1875 92.5227 27.1094 92.9081 26.9531C93.2935 26.7865 93.5852 26.5677 93.7831 26.2969C93.9915 26.0156 94.0956 25.6927 94.0956 25.3281ZM105.448 28.0938L109.932 13.0938H114.761L107.964 32.5469C107.818 32.974 107.62 33.4323 107.37 33.9219C107.13 34.4115 106.802 34.875 106.386 35.3125C105.979 35.7604 105.464 36.125 104.839 36.4062C104.224 36.6875 103.469 36.8281 102.573 36.8281C102.146 36.8281 101.797 36.8021 101.526 36.75C101.255 36.6979 100.932 36.625 100.557 36.5312V33.2344C100.672 33.2344 100.792 33.2344 100.917 33.2344C101.042 33.2448 101.162 33.25 101.276 33.25C101.87 33.25 102.354 33.1823 102.729 33.0469C103.104 32.9115 103.406 32.7031 103.636 32.4219C103.865 32.151 104.047 31.7969 104.182 31.3594L105.448 28.0938ZM103.573 13.0938L107.245 25.3438L107.886 30.1094L104.823 30.4375L98.745 13.0938H103.573ZM131.051 16.5156V20.1719H119.176V16.5156H131.051ZM120.566 7.25V30H115.879V7.25H120.566ZM134.394 7.25V30H129.722V7.25H134.394ZM141.731 16.7812V30H137.231V13.0938H141.466L141.731 16.7812ZM146.825 12.9844L146.747 17.1562C146.528 17.125 146.262 17.099 145.95 17.0781C145.648 17.0469 145.372 17.0312 145.122 17.0312C144.486 17.0312 143.934 17.1146 143.466 17.2812C143.007 17.4375 142.622 17.6719 142.309 17.9844C142.007 18.2969 141.778 18.6771 141.622 19.125C141.476 19.5729 141.393 20.0833 141.372 20.6562L140.466 20.375C140.466 19.2812 140.575 18.276 140.794 17.3594C141.012 16.4323 141.33 15.625 141.747 14.9375C142.174 14.25 142.695 13.7188 143.309 13.3438C143.924 12.9688 144.627 12.7812 145.419 12.7812C145.669 12.7812 145.924 12.8021 146.184 12.8438C146.445 12.875 146.658 12.9219 146.825 12.9844ZM157.131 25.3281C157.131 25.0052 157.037 24.7135 156.849 24.4531C156.662 24.1927 156.313 23.9531 155.802 23.7344C155.302 23.5052 154.579 23.2969 153.631 23.1094C152.776 22.9219 151.98 22.6875 151.24 22.4062C150.511 22.1146 149.875 21.7656 149.334 21.3594C148.802 20.9531 148.386 20.474 148.084 19.9219C147.782 19.3594 147.631 18.7188 147.631 18C147.631 17.2917 147.782 16.625 148.084 16C148.396 15.375 148.839 14.8229 149.412 14.3438C149.995 13.8542 150.704 13.474 151.537 13.2031C152.381 12.9219 153.329 12.7812 154.381 12.7812C155.849 12.7812 157.11 13.0156 158.162 13.4844C159.224 13.9531 160.037 14.599 160.599 15.4219C161.172 16.2344 161.459 17.1615 161.459 18.2031H156.959C156.959 17.7656 156.865 17.375 156.677 17.0312C156.5 16.6771 156.219 16.401 155.834 16.2031C155.459 15.9948 154.969 15.8906 154.365 15.8906C153.865 15.8906 153.433 15.9792 153.068 16.1562C152.704 16.3229 152.422 16.5521 152.224 16.8438C152.037 17.125 151.943 17.4375 151.943 17.7812C151.943 18.0417 151.995 18.276 152.099 18.4844C152.214 18.6823 152.396 18.8646 152.646 19.0312C152.896 19.1979 153.219 19.3542 153.615 19.5C154.021 19.6354 154.521 19.7604 155.115 19.875C156.334 20.125 157.422 20.4531 158.381 20.8594C159.339 21.2552 160.099 21.7969 160.662 22.4844C161.224 23.1615 161.506 24.0521 161.506 25.1562C161.506 25.9062 161.339 26.5938 161.006 27.2188C160.672 27.8438 160.193 28.3906 159.568 28.8594C158.943 29.3177 158.193 29.6771 157.318 29.9375C156.454 30.1875 155.48 30.3125 154.396 30.3125C152.823 30.3125 151.49 30.0312 150.396 29.4688C149.313 28.9062 148.49 28.1927 147.927 27.3281C147.375 26.4531 147.099 25.5573 147.099 24.6406H151.365C151.386 25.2552 151.542 25.75 151.834 26.125C152.136 26.5 152.516 26.7708 152.974 26.9375C153.443 27.1042 153.948 27.1875 154.49 27.1875C155.073 27.1875 155.558 27.1094 155.943 26.9531C156.329 26.7865 156.62 26.5677 156.818 26.2969C157.026 26.0156 157.131 25.6927 157.131 25.3281Z" fill="#1A1A1A"/>
</svg>
