<svg width="24" height="24" viewBox="0 0 24 24" fill="none" xmlns="http://www.w3.org/2000/svg">
<path d="M15.75 20.25V13.5C15.75 12.2574 14.7426 11.25 13.5 11.25H10.5C9.25736 11.25 8.25 12.2574 8.25 13.5V20.25H4.5C4.08579 20.25 3.75 19.9142 3.75 19.5V10.7026C3.75 10.48 3.84887 10.2689 4.01986 10.1264L11.5199 3.8764C11.798 3.64462 12.202 3.64462 12.4801 3.8764L19.9801 10.1264C20.1511 10.2689 20.25 10.48 20.25 10.7026V19.5C20.25 19.9142 19.9142 20.25 19.5 20.25H15.75ZM9.75 20.25V13.5C9.75 13.0858 10.0858 12.75 10.5 12.75H13.5C13.9142 12.75 14.25 13.0858 14.25 13.5V20.25H12H9.75Z" stroke="white" stroke-opacity="0.5" stroke-width="1.5"/>
</svg>
