<svg width="24" height="24" viewBox="0 0 24 24" fill="none" xmlns="http://www.w3.org/2000/svg">
<path fill-rule="evenodd" clip-rule="evenodd" d="M21.4249 3.09477C21.6649 3.20752 21.8503 3.41097 21.9403 3.66038C22.0303 3.90979 22.0176 4.18474 21.9049 4.42477L16.7619 15.3728C16.6928 15.5197 16.5889 15.6476 16.4592 15.7454C16.3296 15.8432 16.178 15.908 16.0177 15.9341C15.8574 15.9602 15.6932 15.9468 15.5392 15.8952C15.3852 15.8436 15.2461 15.7552 15.1339 15.6378L12.0419 12.4018L9.45493 17.7678C9.38958 17.9031 9.29458 18.0219 9.177 18.1154C9.05941 18.2089 8.92227 18.2748 8.77575 18.308C8.62923 18.3412 8.4771 18.341 8.33067 18.3074C8.18424 18.2738 8.04727 18.2076 7.92993 18.1138L5.90593 16.4948L3.89093 20.4538C3.83309 20.5737 3.7519 20.6808 3.65211 20.7689C3.55232 20.857 3.43595 20.9243 3.30981 20.9669C3.18367 21.0094 3.0503 21.0263 2.91754 21.0167C2.78477 21.007 2.65527 20.9709 2.53663 20.9105C2.41799 20.8501 2.31261 20.7667 2.22665 20.665C2.14069 20.5634 2.0759 20.4456 2.03606 20.3186C1.99622 20.1915 1.98215 20.0578 1.99466 19.9253C2.00717 19.7928 2.04602 19.6641 2.10893 19.5468L4.67993 14.4938C4.74731 14.3614 4.84333 14.2458 4.961 14.1552C5.07867 14.0646 5.21504 14.0013 5.36022 13.97C5.50539 13.9387 5.65571 13.9401 5.80027 13.9741C5.94482 14.0082 6.07998 14.074 6.19593 14.1668L8.19893 15.7688L10.8679 10.2328C10.9381 10.0871 11.0424 9.96067 11.1721 9.86421C11.3018 9.76775 11.453 9.70416 11.6126 9.6789C11.7723 9.65363 11.9357 9.66744 12.0888 9.71915C12.2419 9.77085 12.3803 9.8589 12.4919 9.97577L15.5719 13.2018L20.0949 3.57477C20.2077 3.33478 20.4111 3.1494 20.6605 3.05938C20.91 2.96937 21.1849 2.9821 21.4249 3.09477Z" fill="#B3A7D1"/>
</svg>
