<svg width="16" height="16" viewBox="0 0 16 16" fill="none" xmlns="http://www.w3.org/2000/svg">
<g clip-path="url(#clip0_377_119116)">
<path fill-rule="evenodd" clip-rule="evenodd" d="M2.30283 8.23186C2.24807 8.14857 2.19861 8.07092 2.15453 8C2.19861 7.92908 2.24807 7.85143 2.30283 7.76814C2.58717 7.33569 3.00791 6.76126 3.55275 6.19046C4.65935 5.0311 6.16496 4 8 4C9.8345 4 11.3401 5.03106 12.4469 6.1905C12.9918 6.76132 13.4127 7.33577 13.6971 7.76823C13.7518 7.85148 13.8013 7.9291 13.8454 8C13.8013 8.07089 13.7518 8.14852 13.6971 8.23177C13.4127 8.66423 12.9918 9.23868 12.4469 9.8095C11.3401 10.9689 9.8345 12 8 12C6.16496 12 4.65935 10.9689 3.55275 9.80954C3.00791 9.23874 2.58717 8.66431 2.30283 8.23186ZM15.8908 7.54557C15.891 7.54591 15.8911 7.54624 15 8C15.8911 8.45376 15.891 8.45409 15.8908 8.45443L15.8904 8.45522L15.8894 8.45715L15.8867 8.46237L15.8785 8.47818C15.8717 8.49108 15.8624 8.50864 15.8506 8.53055C15.827 8.57435 15.7933 8.63564 15.7496 8.7119C15.6623 8.86429 15.5348 9.07728 15.3681 9.33073C15.036 9.83577 14.5419 10.5113 13.8936 11.1905C12.6139 12.5311 10.6195 14 8 14C5.38004 14 3.38565 12.5311 2.106 11.1905C1.45771 10.5113 0.963769 9.83569 0.631697 9.33064C0.465047 9.07718 0.337538 8.86418 0.250268 8.71178C0.206595 8.63551 0.172887 8.57423 0.149286 8.53042C0.137482 8.5085 0.128196 8.49094 0.121445 8.47805L0.11322 8.46223L0.110535 8.45701L0.10955 8.45508L0.109147 8.45429C0.108971 8.45395 0.108804 8.45362 1 8C0.108804 7.54638 0.108971 7.54605 0.109147 7.54571L0.10955 7.54492L0.110535 7.54299L0.11322 7.53777L0.121445 7.52195C0.128196 7.50906 0.137482 7.4915 0.149286 7.46958C0.172887 7.42577 0.206595 7.36449 0.250268 7.28822C0.337538 7.13582 0.465047 6.92282 0.631697 6.66936C0.963769 6.16431 1.45771 5.48874 2.106 4.80954C3.38565 3.4689 5.38004 2 8 2C10.6195 2 12.6139 3.46894 13.8936 4.8095C14.5419 5.48868 15.036 6.16423 15.3681 6.66927C15.5348 6.92272 15.6623 7.13571 15.7496 7.2881C15.7933 7.36436 15.827 7.42565 15.8506 7.46945C15.8624 7.49136 15.8717 7.50892 15.8785 7.52182L15.8867 7.53763L15.8894 7.54285L15.8904 7.54478L15.8908 7.54557ZM15 8L15.8911 7.54624C16.0363 7.83133 16.0363 8.16867 15.8911 8.45376L15 8ZM0.108804 7.54638L1 8L0.108804 8.45362C-0.036268 8.1686 -0.036268 7.8314 0.108804 7.54638ZM8 5C7.20435 5 6.44129 5.31607 5.87868 5.87868C5.31607 6.44129 5 7.20435 5 8C5 8.79565 5.31607 9.55871 5.87868 10.1213C6.44129 10.6839 7.20435 11 8 11C8.79565 11 9.55871 10.6839 10.1213 10.1213C10.6839 9.55871 11 8.79565 11 8C11 7.20435 10.6839 6.44129 10.1213 5.87868C9.55871 5.31607 8.79565 5 8 5ZM8.70711 8.70711C8.51957 8.89464 8.26522 9 8 9C7.73478 9 7.48043 8.89464 7.29289 8.70711C7.10536 8.51957 7 8.26522 7 8C7 7.73478 7.10536 7.48043 7.29289 7.29289C7.48043 7.10536 7.73478 7 8 7C8.26522 7 8.51957 7.10536 8.70711 7.29289C8.89464 7.48043 9 7.73478 9 8C9 8.26522 8.89464 8.51957 8.70711 8.70711Z" fill="black"/>
</g>
<defs>
<clipPath id="clip0_377_119116">
<rect width="16" height="16" fill="white"/>
</clipPath>
</defs>
</svg>
