<svg width="18" height="18" viewBox="0 0 18 18" fill="none" xmlns="http://www.w3.org/2000/svg">
<g id="icon" clip-path="url(#clip0_1875_2652)">
<path id="Union" fill-rule="evenodd" clip-rule="evenodd" d="M6.09912 3.75677C7.23759 3.12741 8.54974 2.8851 9.83787 3.06634C11.126 3.24758 12.3204 3.84255 13.241 4.76159C13.2464 4.76694 13.2518 4.7722 13.2573 4.77738L15.3574 6.75076H12.7509C12.3366 6.75076 12.0009 7.08655 12.0009 7.50076C12.0009 7.91498 12.3366 8.25076 12.7509 8.25076H17.2423C17.3272 8.25172 17.4122 8.23832 17.4933 8.2107C17.6057 8.17244 17.7105 8.1069 17.7975 8.01439C17.8861 7.92006 17.9456 7.80886 17.9763 7.69188C17.9835 7.66452 17.9891 7.63684 17.9931 7.609C17.9987 7.57061 18.0013 7.5319 18.0009 7.49323V3.00076C18.0009 2.58655 17.6651 2.25076 17.2509 2.25076C16.8366 2.25076 16.5009 2.58655 16.5009 3.00076V5.76688L14.2925 3.69182C13.1429 2.54767 11.6532 1.80697 10.0469 1.58097C8.43669 1.35442 6.79649 1.65731 5.37341 2.44401C3.95033 3.2307 2.82147 4.45857 2.15692 5.94262C1.49237 7.42669 1.32811 9.08652 1.68892 10.672C2.04973 12.2575 2.91604 13.6829 4.15734 14.7332C5.39862 15.7835 6.94765 16.402 8.57103 16.4954C10.1944 16.5889 11.8041 16.1522 13.1577 15.2512C14.5114 14.3502 15.5354 13.0337 16.0758 11.5C16.2134 11.1094 16.0083 10.6811 15.6176 10.5434C15.2269 10.4058 14.7987 10.6109 14.661 11.0016C14.2287 12.2285 13.4095 13.2817 12.3266 14.0025C11.2437 14.7233 9.95588 15.0727 8.6572 14.9979C7.35851 14.9232 6.11929 14.4284 5.12625 13.5881C4.13323 12.7479 3.44018 11.6076 3.15153 10.3392C2.86288 9.07079 2.99428 7.74293 3.52593 6.55566C4.05757 5.36842 4.96066 4.38612 6.09912 3.75677Z" fill="#6750A4"/>
</g>
<defs>
<clipPath id="clip0_1875_2652">
<rect width="18" height="18" fill="white"/>
</clipPath>
</defs>
</svg>
